<svg xmlns="http://www.w3.org/2000/svg" width="19" height="14" viewBox="0 0 19 14"><g><g><g><g><g><path fill="#00b2ff" d="M16.68 0c1.282 0 2.324 1.013 2.32 2.253v9.497c0 1.241-1.042 2.25-2.323 2.25H2.323C1.042 14 0 12.991 0 11.75v-9.5C0 1.009 1.042 0 2.323 0zm1.259 11.75V2.253c0-.673-.567-1.221-1.262-1.221H2.323c-.695 0-1.262.548-1.262 1.221v9.497c0 .674.567 1.222 1.262 1.222h14.358c.695 0 1.262-.548 1.262-1.222z"/></g><g><path fill="#00b2ff" d="M11.98 6.885l4.648-4.035a.505.505 0 0 0 .039-.727.546.546 0 0 0-.75-.038L9.507 7.654l-1.25-1.081c-.004-.004-.008-.008-.008-.012a.78.78 0 0 0-.086-.072L3.076 2.081a.542.542 0 0 0-.75.042.502.502 0 0 0 .043.727L7.07 6.92l-4.683 4.243a.504.504 0 0 0-.023.727.541.541 0 0 0 .75.027L7.87 7.612l1.29 1.115a.54.54 0 0 0 .707-.004l1.325-1.15 4.725 4.348c.102.095.236.14.366.14.141 0 .279-.053.385-.16a.504.504 0 0 0-.02-.726z"/></g></g></g></g></g></svg>