<svg xmlns="http://www.w3.org/2000/svg" width="18" height="18" viewBox="0 0 18 18"><g><g><g><g><g><path fill="#00b2ff" d="M16.322 13.242c.384.38.586.832.586 1.303 0 .468-.198.924-.575 1.315-.163.171-.33.334-.494.49-.24.232-.468.448-.666.688-.004.007-.011.011-.015.019-.579.627-1.317.942-2.195.942-.077 0-.16-.004-.24-.008-1.305-.083-2.473-.573-3.348-.988a17.9 17.9 0 0 1-5.962-4.66C2.04 10.692 1.12 9.154.503 7.494c-.251-.677-.579-1.71-.487-2.82.06-.687.338-1.28.825-1.766l1.294-1.303.007-.008c.38-.364.83-.558 1.294-.558.464 0 .905.194 1.274.558.248.228.487.472.716.707.114.122.236.243.354.361l1.038 1.037c.8.798.8 1.831 0 2.629-.106.106-.213.217-.32.323-.28.285-.57.581-.882.866.232.513.552 1.018 1.027 1.619.982 1.204 2.005 2.135 3.131 2.849.11.068.24.133.377.201.095.05.194.099.293.152l1.202-1.197c.384-.383.833-.585 1.301-.585.472 0 .917.205 1.286.59zm-.73.718l-2.097-2.093-.007-.007c-.118-.13-.312-.278-.548-.278-.24 0-.445.156-.575.285l-1.3 1.3c-.066.064-.263.262-.58.262a.826.826 0 0 1-.376-.095c-.015-.008-.03-.02-.046-.027-.11-.068-.24-.133-.376-.201-.152-.076-.312-.156-.468-.255-1.221-.771-2.329-1.778-3.379-3.07l-.003-.003c-.579-.733-.96-1.349-1.23-2.002l-.01-.035c-.07-.216-.13-.535.197-.862.004-.007.012-.011.02-.019.33-.296.635-.6.954-.927.11-.106.217-.216.327-.327.404-.402.404-.775 0-1.177L5.057 3.392c-.122-.126-.244-.247-.362-.369-.232-.24-.452-.463-.685-.68L4 2.332c-.122-.122-.316-.266-.555-.266-.194 0-.392.095-.579.27L1.568 3.63a1.743 1.743 0 0 0-.525 1.128c-.057.695.072 1.432.426 2.378.574 1.55 1.442 2.994 2.74 4.556a16.896 16.896 0 0 0 5.615 4.391c.787.376 1.837.817 2.967.89.057.003.118.003.175.003.594 0 1.047-.194 1.43-.604.237-.277.488-.524.735-.76.164-.16.316-.304.464-.463-.004.003-.004 0 0 0 .388-.403.388-.802-.004-1.19z"/></g><g><path fill="#00b2ff" d="M9.733 4.277a4.827 4.827 0 0 1 2.625 1.36A4.84 4.84 0 0 1 13.72 8.26a.51.51 0 0 0 .506.425c.03 0 .057-.004.087-.007a.513.513 0 0 0 .423-.593 5.857 5.857 0 0 0-1.648-3.172 5.87 5.87 0 0 0-3.176-1.645.516.516 0 0 0-.594.418.507.507 0 0 0 .415.592z"/></g><g><path fill="#00b2ff" d="M17.99 7.94a9.635 9.635 0 0 0-2.712-5.223 9.659 9.659 0 0 0-5.231-2.71.512.512 0 1 0-.168 1.011c1.773.3 3.39 1.14 4.676 2.42a8.602 8.602 0 0 1 2.423 4.67.51.51 0 0 0 .506.425c.03 0 .058-.004.088-.008a.503.503 0 0 0 .418-.585z"/></g></g></g></g></g></svg>