<svg xmlns="http://www.w3.org/2000/svg" width="35" height="35" viewBox="0 0 35 35"><g><g><g><g><g><path fill="#00b2ff" d="M11.067 8.58a.689.689 0 0 0-.483-.2.689.689 0 0 0-.484.2.69.69 0 0 0-.2.484c0 .18.073.356.2.483s.304.2.484.2.356-.073.483-.2a.69.69 0 0 0 .2-.483.689.689 0 0 0-.2-.484z"/></g></g></g><g><g><g><path fill="#00b2ff" d="M34.8 2.859c.128.128.2.302.2.483L34.994 14.9a3.4 3.4 0 0 1-1.002 2.417L17.31 34a3.41 3.41 0 0 1-2.419 1 3.41 3.41 0 0 1-2.419-1L1.002 22.526A3.399 3.399 0 0 1 0 20.107c0-.914.356-1.773 1.002-2.419l7.369-7.37a.684.684 0 1 1 .966.967l-7.368 7.37a2.04 2.04 0 0 0-.602 1.452c0 .549.214 1.065.602 1.452L13.44 33.033a2.04 2.04 0 0 0 1.452.601 2.04 2.04 0 0 0 1.452-.601l16.681-16.684a2.04 2.04 0 0 0 .602-1.45l.006-11.274-.645-.646-2.537 2.537c.641 1.076.5 2.491-.425 3.416a2.791 2.791 0 0 1-1.98.819 2.792 2.792 0 0 1-1.98-.82 2.783 2.783 0 0 1-.82-1.98c0-.748.291-1.451.82-1.98a2.805 2.805 0 0 1 3.42-.422l2.536-2.537-.634-.634-11.286-.007H20.1a2.04 2.04 0 0 0-1.451.602l-5.774 5.774a.684.684 0 1 1-.967-.967l5.774-5.774A3.398 3.398 0 0 1 20.1.004h.002l11.57.006c.182 0 .356.073.484.2l.833.835.844-.845a.684.684 0 1 1 .967.967l-.845.845zm-5.38 3.688l-.786.787a.681.681 0 0 1-.967 0 .684.684 0 0 1 0-.967l.79-.79a1.44 1.44 0 0 0-1.424.36 1.435 1.435 0 0 0 1.013 2.447 1.434 1.434 0 0 0 1.375-1.837z"/></g></g></g><g><g><g><path fill="#00b2ff" d="M29.204 13.77a2.69 2.69 0 0 1 .793 1.914 2.69 2.69 0 0 1-.793 1.914L16.597 30.207a2.688 2.688 0 0 1-1.914.792 2.689 2.689 0 0 1-1.914-.793L4.803 22.24a2.69 2.69 0 0 1-.793-1.914c0-.724.282-1.403.793-1.915L17.41 5.802a2.71 2.71 0 0 1 3.828 0zm-.967 2.86a1.33 1.33 0 0 0 .393-.946c0-.358-.14-.695-.393-.948L20.271 6.77a1.335 1.335 0 0 0-.947-.392c-.343 0-.686.13-.947.392L5.77 19.377a1.33 1.33 0 0 0-.393.948c0 .357.14.694.393.947l7.966 7.968c.253.253.59.392.947.392.358 0 .694-.14.947-.392z"/></g></g></g><g><g><g><path fill="#00b2ff" d="M22.288 13.677a.684.684 0 0 0-.967-.967l-.393.394c-1.051-.65-2.4-.562-3.252.29a2.48 2.48 0 0 0-.716 1.901c.034.704.337 1.375.853 1.891.55.55.61 1.384.136 1.859-.474.474-1.308.413-1.858-.137s-.611-1.384-.137-1.859a.684.684 0 0 0-.966-.967c-.853.853-.94 2.202-.29 3.253l-.468.467a.684.684 0 0 0 .967.967l.468-.467c.459.284.975.427 1.481.427.653 0 1.29-.237 1.77-.717 1.008-1.008.946-2.708-.136-3.792a1.511 1.511 0 0 1-.455-.991 1.13 1.13 0 0 1 .318-.868c.474-.474 1.307-.413 1.857.137s.612 1.384.137 1.859a.684.684 0 0 0 .967.966c.853-.852.94-2.201.29-3.252z"/></g></g></g><g><g><g><path fill="#00b2ff" d="M15.368 25.012L11.857 21.5a.684.684 0 0 0-.967.967l3.511 3.512a.682.682 0 0 0 .967 0 .684.684 0 0 0 0-.967z"/></g></g></g><g><g><g><path fill="#00b2ff" d="M9.987 19.63a.688.688 0 0 0-.483-.2.69.69 0 0 0-.484.2.69.69 0 0 0-.2.484c0 .18.073.357.2.484s.304.2.484.2a.687.687 0 0 0 .684-.684.688.688 0 0 0-.201-.484z"/></g></g></g></g></g></svg>