<svg xmlns="http://www.w3.org/2000/svg" width="29" height="35" viewBox="0 0 29 35"><g><g><g><path fill="#00b2ff" d="M1.702 10.19c-.808-.799-.808-2.1 0-2.9.807-.8 2.122-.8 2.929 0l1.587 1.572a14.58 14.58 0 0 1 5.52-2.311V4.51h-1.38a.687.687 0 0 1-.691-.683V2.051C9.667.92 10.596 0 11.738 0h5.524c1.142 0 2.071.92 2.071 2.05v1.778c0 .378-.309.684-.69.684h-1.381V6.55a14.578 14.578 0 0 1 5.52 2.31l1.587-1.57c.807-.8 2.121-.8 2.93 0 .807.799.807 2.1 0 2.9l-1.487 1.471A14.251 14.251 0 0 1 29 20.644C29 28.56 22.495 35 14.5 35S0 28.56 0 20.645c0-3.277 1.128-6.442 3.188-8.983zm1.953-1.933a.696.696 0 0 0-.977 0 .68.68 0 0 0 0 .967l1.427 1.412a14.62 14.62 0 0 1 1.01-.934zm14.297-6.206a.688.688 0 0 0-.69-.684h-5.524c-.38 0-.69.307-.69.684v1.094h6.904zM13.12 4.51v1.843a15.006 15.006 0 0 1 2.762 0V4.512zm13.203 3.746a.696.696 0 0 0-.977 0l-1.46 1.445c.351.296.688.607 1.01.934l1.427-1.412a.68.68 0 0 0 0-.967zM14.5 33.633c7.234 0 13.12-5.827 13.12-12.989 0-3.159-1.16-6.202-3.263-8.57A13.177 13.177 0 0 0 14.5 7.656a13.18 13.18 0 0 0-7.936 2.645 13.194 13.194 0 0 0-1.921 1.771 12.898 12.898 0 0 0-3.262 8.572c0 7.161 5.885 12.988 13.119 12.988z"/></g><g><path fill="#00b2ff" d="M14.5 22.695a2.063 2.063 0 0 1-2.071-2.05c0-.892.577-1.652 1.38-1.934V13.81c0-.378.31-.684.691-.684.381 0 .69.306.69.684v4.902a2.056 2.056 0 0 1 1.381 1.934c0 1.13-.929 2.05-2.071 2.05zm0-2.734c-.38 0-.69.306-.69.684 0 .377.31.683.69.683.38 0 .69-.306.69-.683a.688.688 0 0 0-.69-.684z"/></g><g><path fill="#00b2ff" d="M7.145 13.433a.652.652 0 0 1 .074-.073 10.416 10.416 0 0 1 4.352-2.552c.366-.107.75.1.857.462a.683.683 0 0 1-.466.85 9.027 9.027 0 0 0-3.298 1.78l.466.46c.27.268.27.7 0 .968a.692.692 0 0 1-.977 0l-.467-.463a8.758 8.758 0 0 0-2.136 5.096h.664c.382 0 .69.306.69.683 0 .378-.308.684-.69.684H5.55a8.757 8.757 0 0 0 2.136 5.095l.467-.462a.696.696 0 0 1 .977 0c.27.267.27.7 0 .967l-.467.462a8.942 8.942 0 0 0 5.147 2.115v-.657c0-.378.309-.684.69-.684.381 0 .69.306.69.684v.657a8.94 8.94 0 0 0 5.147-2.115l-.467-.462a.679.679 0 0 1 0-.967.696.696 0 0 1 .977 0l.467.462a8.758 8.758 0 0 0 2.136-5.095h-.664a.687.687 0 0 1-.69-.684c0-.377.308-.683.69-.683h.664a8.758 8.758 0 0 0-2.136-5.096l-.467.463a.692.692 0 0 1-.977 0 .68.68 0 0 1 0-.967l.466-.461a9.023 9.023 0 0 0-3.298-1.78.682.682 0 0 1-.466-.85.692.692 0 0 1 .857-.462 10.414 10.414 0 0 1 4.393 2.587l.033.037a10.132 10.132 0 0 1 3.002 7.213c0 2.718-1.066 5.277-3.002 7.211a.542.542 0 0 1-.033.037l-.037.033a10.34 10.34 0 0 1-7.285 2.972c-2.746 0-5.33-1.055-7.285-2.971l-.037-.034c-.012-.011-.022-.024-.033-.036a10.132 10.132 0 0 1-3.002-7.212c0-2.719 1.066-5.278 3.002-7.212z"/></g><g><path fill="#00b2ff" d="M14.5 11.758a.687.687 0 0 1-.69-.684c0-.377.309-.683.69-.683.381 0 .69.306.69.683 0 .378-.309.684-.69.684z"/></g></g></g></svg>