<svg xmlns="http://www.w3.org/2000/svg" width="35" height="35" viewBox="0 0 35 35"><g><g><g><g><g><path fill="#00b2ff" d="M35 32.295v2.025a.684.684 0 0 1-.684.684H.684A.684.684 0 0 1 0 34.32v-2.025a4.464 4.464 0 0 1 3.736-4.398 3.132 3.132 0 0 1-.597-1.842v-2.23A2.564 2.564 0 0 1 5.7 21.263h3.055c.378 0 .684.306.684.684v4.108c0 .687-.222 1.323-.597 1.84.468.077.917.226 1.337.446a5.816 5.816 0 0 1 4.294-2.56l.021-.005a4.02 4.02 0 0 1-1.03-2.69v-3.03A3.24 3.24 0 0 1 16.7 16.82h4.152c.378 0 .684.306.684.684v5.582a4.02 4.02 0 0 1-1.03 2.69l.021.005a5.816 5.816 0 0 1 4.294 2.56c.42-.22.869-.37 1.336-.445a3.132 3.132 0 0 1-.596-1.841v-2.23a2.564 2.564 0 0 1 2.561-2.562h3.055c.378 0 .684.306.684.684v4.108c0 .687-.222 1.323-.597 1.842A4.464 4.464 0 0 1 35 32.295zM4.506 24.203h2.826c.408 0 .74-.332.74-.74v-.832H5.7c-.658 0-1.194.535-1.194 1.194zm0 1.368v.484c0 .983.8 1.783 1.783 1.783.983 0 1.783-.8 1.783-1.783v-.619c-.23.087-.48.135-.74.135zm1.342 3.634l.441.44.44-.44zm3.35 2.363c0-.707.127-1.384.358-2.01a3.057 3.057 0 0 0-.933-.313l-1.85 1.85a.684.684 0 0 1-.967 0l-1.85-1.849a3.095 3.095 0 0 0-2.589 3.049v1.341h7.83zm10.97-8.482v-1.222a2.603 2.603 0 0 1-1.251.319h-4.085v.904a2.672 2.672 0 0 0 2.668 2.668 2.672 2.672 0 0 0 2.669-2.668zm-1.476 4.036h-2.384l1.192 1.192zm-3.86-6.306h4.085c.69 0 1.251-.562 1.251-1.252v-1.377H16.7a1.87 1.87 0 0 0-1.868 1.869zm9.603 12.82v-2.068c0-2.25-1.68-4.113-3.85-4.405l-2.602 2.6a.682.682 0 0 1-.966 0l-2.601-2.6a4.455 4.455 0 0 0-3.8 3.739h4.4a.684.684 0 0 1 0 1.367h-4.45v1.367zm2.493-9.433h2.825c.409 0 .74-.332.74-.74v-.832h-2.37c-.66 0-1.195.535-1.195 1.194zm0 1.368v.484c0 .983.8 1.783 1.783 1.783.983 0 1.783-.8 1.783-1.783v-.619c-.23.087-.48.135-.74.135zm1.342 3.634l.44.44.442-.44zm5.363 4.431v-1.341a3.095 3.095 0 0 0-2.59-3.049l-1.849 1.85a.683.683 0 0 1-.966 0l-1.85-1.85a3.049 3.049 0 0 0-.934.312c.231.626.358 1.303.358 2.01v2.068z"/></g></g></g><g><g><g><path fill="#00b2ff" d="M20.868 4.47a.684.684 0 0 0-.967 0l-3.354 3.355-1.45-1.45a.684.684 0 1 0-.967.966l1.934 1.934a.684.684 0 0 0 .966 0l3.838-3.838a.684.684 0 0 0 0-.967z"/></g></g></g><g><g><g><path fill="#00b2ff" d="M20.294.59a.684.684 0 0 0-.557 1.248A5.51 5.51 0 0 1 23 6.865a5.508 5.508 0 0 1-5.501 5.502 5.508 5.508 0 0 1-5.502-5.502 5.515 5.515 0 0 1 3.24-5.016.684.684 0 0 0-.563-1.246 6.884 6.884 0 0 0-4.044 6.262 6.876 6.876 0 0 0 6.869 6.869 6.876 6.876 0 0 0 6.868-6.869A6.88 6.88 0 0 0 20.294.59z"/></g></g></g><g><g><g><path fill="#00b2ff" d="M17.528 0h-.024a.684.684 0 0 0 0 1.367H17.525A.684.684 0 0 0 17.528 0z"/></g></g></g><g><g><g><path fill="#00b2ff" d="M17.987 31.1a.688.688 0 0 0-.483-.2.689.689 0 0 0-.484.2.689.689 0 0 0-.2.484c0 .18.073.356.2.483a.689.689 0 0 0 .967 0 .689.689 0 0 0 .2-.483.689.689 0 0 0-.2-.484z"/></g></g></g></g></g></svg>