<svg xmlns="http://www.w3.org/2000/svg" width="36" height="31" viewBox="0 0 36 31"><g><g><g><path fill="#00b2ff" d="M18.003 9.76a.706.706 0 0 0-.703.708c0 .39.315.708.703.708a.706.706 0 0 0 .703-.708.706.706 0 0 0-.703-.708z"/></g><g><path fill="#00b2ff" d="M33.89 14.007A2.12 2.12 0 0 1 36 16.13a2.116 2.116 0 0 1-2.11 2.124H2.11A2.12 2.12 0 0 1 0 16.13c0-1.174.944-2.124 2.11-2.124h2.735C6.3 9.828 8.453 2.264 12.305.38c1.829-.894 3.578-.11 4.228 1.299A1.59 1.59 0 0 0 18 2.625a1.59 1.59 0 0 0 1.467-.947C20.14.22 21.933-.498 23.829.53c3.79 2.058 5.883 9.33 7.326 13.477zM7.316 11.174c-.357 1.037-.725 2.1-.98 2.833h23.33c-.255-.735-.625-1.8-.98-2.833h-7.872a.705.705 0 0 1-.704-.708c0-.39.315-.708.703-.708h7.38c-2.04-5.66-4.014-7.43-5.03-7.982-1.17-.634-2.083-.23-2.42.5A2.996 2.996 0 0 1 18 4.041a2.996 2.996 0 0 1-2.742-1.765c-.327-.71-1.236-1.161-2.34-.622-1.012.495-2.992 2.208-5.111 8.104h7.38c.389 0 .704.317.704.708 0 .391-.315.708-.704.708zm26.576 5.665a.706.706 0 0 0 .703-.708.706.706 0 0 0-.703-.708H2.109a.706.706 0 0 0-.703.708c0 .39.316.708.703.708z"/></g><g><path fill="#00b2ff" d="M16.593 21.09c.388 0 .703.317.703.708v.708h1.406v-.708c0-.391.315-.708.704-.708h11.25c.388 0 .703.317.703.708v2.832c0 3.514-2.84 6.373-6.328 6.373a6.315 6.315 0 0 1-5.915-4.105 2.681 2.681 0 0 0-2.233 0 6.316 6.316 0 0 1-5.915 4.105c-3.49 0-6.328-2.859-6.328-6.372v-2.833c0-.39.315-.708.703-.708zm-.703 3.54v-2.124H6.046v2.125c0 2.733 2.208 4.956 4.922 4.956 2.726 0 4.922-2.216 4.922-4.956zm4.219 0c0 2.734 2.19 4.957 4.922 4.957 2.714 0 4.922-2.223 4.922-4.956v-2.125h-9.844zm-2.813-.707v.708c0 .226-.013.451-.036.675.489-.09.99-.09 1.479 0a6.494 6.494 0 0 1-.037-.675v-.708z"/></g><g><path fill="#00b2ff" d="M10.966 26.752a2.12 2.12 0 0 1-2.11-2.124.706.706 0 0 0-.703-.708.706.706 0 0 0-.703.708c0 1.952 1.577 3.54 3.516 3.54a.706.706 0 0 0 .703-.708.706.706 0 0 0-.703-.708z"/></g><g><path fill="#00b2ff" d="M25.033 28.168c1.939 0 3.516-1.588 3.516-3.54a.706.706 0 0 0-.703-.708.706.706 0 0 0-.704.708 2.12 2.12 0 0 1-2.109 2.124.706.706 0 0 0-.703.708c0 .391.315.708.703.708z"/></g></g></g></svg>